<svg version="1.1" xmlns="http://www.w3.org/2000/svg" viewBox="-74.20080855252948 -211.65354430708663 147.4016316046127 423.30708861417327" fill="none" stroke="black" stroke-width="0.6%" vector-effect="non-scaling-stroke">
    <path d="M 5.16927 -185.19685 L 5.16927 185.19685 A 22.67716535433071 22.67716535433071 0 0 1 -17.50789 207.87402 L -47.74411 207.87402 L -47.74411 207.73143 L -47.74411 207.30545 L -47.74411 206.60145 L -47.74411 205.62827 L -47.74411 204.39816 L -47.74411 202.92657 L -47.74411 201.23203 L -47.74411 199.33583 L -47.74411 197.26183 L -47.74411 195.0361 L -47.74411 192.68664 L -47.74411 190.24299 L -47.74411 187.73589 L -47.74411 185.19685 L -17.50789 185.19685" />
    <path d="M -17.50789 -185.19685 L -17.50789 185.19685" />
    <path d="M 30.42581 128.50394 C 30.42581 130.37607 30.42581 132.24801 30.42581 134.05214 C 30.42581 135.83545 30.42581 137.55219 30.42581 139.14174 C 30.42581 140.90933 30.42581 142.51921 30.42581 143.9009 C 30.42581 145.28332 30.42581 146.43751 30.42581 147.31294 C 30.42581 147.96184 30.42581 148.45846 30.42581 148.79072 C 30.42581 149.12326 30.42581 149.29148 30.42581 149.29134" />
    <path d="M 30.42581 107.71654 Q 30.42581 107.71677 30.42581 107.97246 C 30.42581 108.21738 30.42581 108.63845 30.42581 109.2248 C 30.42581 109.81085 30.42581 110.56203 30.42581 111.45926 C 30.42581 112.35624 30.42581 113.39926 30.42581 114.56205 C 30.42581 115.72457 30.42581 117.00697 30.42581 118.37527 C 30.42581 119.91492 30.42581 121.56457 30.42581 123.27109 C 30.42581 124.97748 30.42581 126.7407 30.42581 128.50394" />
    <path d="M 5.16927 -38.17323 L 7.43699 -38.17323 L 7.43699 26.83465" />
    <path d="M 5.16927 26.83465 L 7.43699 26.83465" />
    <path d="M 5.16927 -185.19685 A 22.67716535433071 22.67716535433071 0 0 0 -17.50789 -207.87402 L -17.50789 -207.73143 L -17.50789 -207.30545 L -17.50789 -206.60145 L -17.50789 -205.62827 L -17.50789 -204.39816 L -17.50789 -202.92657 L -17.50789 -201.23203 L -17.50789 -199.33583 L -17.50789 -197.26183 L -17.50789 -195.0361 L -17.50789 -192.68664 L -17.50789 -190.24299 L -17.50789 -187.73589 L -17.50789 -185.19685 L -47.74411 -185.19685 L -47.74411 185.19685" />
    <path d="M -47.74411 -207.87402 L -17.50789 -207.87402" />
    <path d="M 50.5236 128.50394 L 50.5236 130.83139 L 50.5236 133.12957 L 50.5236 135.36958 L 50.5236 137.52325 L 50.5236 139.5635 L 50.5236 141.46467 L 50.5236 143.20285 L 50.5236 144.75618 L 50.5236 146.10513 L 50.5236 147.23274 L 50.5236 148.12482 L 50.5236 148.77016 L 50.5236 149.16063 L 50.5236 149.29134 L 30.42581 149.29134" />
    <path d="M 50.5236 107.71654 L 50.5236 107.84724 L 50.5236 108.23772 L 50.5236 108.88306 L 50.5236 109.77514 L 50.5236 110.90274 L 50.5236 112.25169 L 50.5236 113.80502 L 50.5236 115.5432 L 50.5236 117.44437 L 50.5236 119.48462 L 50.5236 121.63829 L 50.5236 123.8783 L 50.5236 126.17649 L 50.5236 128.50394" />
    <path d="M -70.42128 -185.19685 L -70.42128 185.19685 A 22.67716535433071 22.67716535433071 0 0 0 -47.74411 207.87402" />
    <path d="M -47.74411 -207.87402 L -47.74411 -207.73143 L -47.74411 -207.30545 L -47.74411 -206.60145 L -47.74411 -205.62827 L -47.74411 -204.39816 L -47.74411 -202.92657 L -47.74411 -201.23203 L -47.74411 -199.33583 L -47.74411 -197.26183 L -47.74411 -195.0361 L -47.74411 -192.68664 L -47.74411 -190.24299 L -47.74411 -187.73589 L -47.74411 -185.19685" />
    <path d="M 50.5236 128.50394 L 50.5236 131.88932 L 50.5236 135.23213 L 50.5236 138.49033 L 50.5236 141.62294 L 50.5236 144.59058 L 50.5236 147.35591 L 50.5236 149.88417 L 50.5236 152.14357 L 50.5236 154.10568 L 50.5236 155.74583 L 50.5236 157.0434 L 50.5236 157.98207 L 50.5236 158.55004 L 50.5236 158.74016" />
    <path d="M 50.5236 98.26772 L 50.5236 98.45784 L 50.5236 99.0258 L 50.5236 99.96447 L 50.5236 101.26204 L 50.5236 102.9022 L 50.5236 104.86431 L 50.5236 107.1237 L 50.5236 109.65196 L 50.5236 112.4173 L 50.5236 115.38493 L 50.5236 118.51755 L 50.5236 121.77574 L 50.5236 125.11855 L 50.5236 128.50394" />
    <path d="M -70.42128 185.19685 A 22.67716535433071 22.67716535433071 0 0 0 -47.74411 207.87402" />
    <path d="M -70.42128 -185.19685 A 22.67716535433071 22.67716535433071 0 0 1 -47.74411 -207.87402" />
    <path d="M 58.08266 128.50394 L 58.08266 132.73567 L 58.08266 136.91418 L 58.08266 140.98693 L 58.08266 144.90269 L 58.08266 148.61224 L 58.08266 152.06891 L 58.08266 155.22923 L 58.08266 158.05347 L 58.08266 160.50611 L 58.08266 162.5563 L 58.08266 164.17827 L 58.08266 165.35161 L 58.08266 166.06156 L 58.08266 166.29921 C 57.50875 166.29927 56.93488 166.23363 56.37581 166.10399 C 55.81672 165.97446 55.27249 165.78093 54.75713 165.5284 C 54.24173 165.27597 53.75525 164.96455 53.31023 164.60217 C 52.95724 164.31482 52.6303 163.99549 52.3347 163.64938 C 51.75609 162.97247 51.2987 162.19205 50.99082 161.35648 C 50.68227 160.52115 50.52324 159.63066 50.5236 158.74016" />
    <path d="M 58.08266 90.70866 L 58.08266 90.94631 L 58.08266 91.65627 L 58.08266 92.82961 L 58.08266 94.45157 L 58.08266 96.50176 L 58.08266 98.9544 L 58.08266 101.77864 L 58.08266 104.93897 L 58.08266 108.39564 L 58.08266 112.10518 L 58.08266 116.02095 L 58.08266 120.0937 L 58.08266 124.27221 L 58.08266 128.50394" />
    <path d="M 61.86219 128.50394 L 61.86219 124.27221 L 61.86219 120.0937 L 61.86219 116.02095 L 61.86219 112.10518 L 61.86219 108.39564 L 61.86219 104.93897 L 61.86219 101.77864 L 61.86219 98.9544 L 61.86219 96.50176 L 61.86219 94.45157 L 61.86219 92.82961 L 61.86219 91.65627 L 61.86219 90.94631 L 61.86219 90.70866 C 62.43609 90.7086 63.00996 90.77424 63.56903 90.90389 C 64.12812 91.03342 64.67236 91.22694 65.18771 91.47948 C 65.70312 91.7319 66.18959 92.04332 66.63462 92.4057 C 66.98761 92.69305 67.31455 93.01238 67.61014 93.3585 C 68.18875 94.03541 68.64614 94.81582 68.95403 95.6514 C 69.26257 96.48673 69.42161 97.37721 69.42124 98.26772" />
    <path d="M 61.86219 166.29921 L 61.86219 166.06156 L 61.86219 165.35161 L 61.86219 164.17827 L 61.86219 162.5563 L 61.86219 160.50611 L 61.86219 158.05347 L 61.86219 155.22923 L 61.86219 152.06891 L 61.86219 148.61224 L 61.86219 144.90269 L 61.86219 140.98693 L 61.86219 136.91418 L 61.86219 132.73567 L 61.86219 128.50394" />
    <path d="M 69.42124 128.50394 L 69.42124 125.11855 L 69.42124 121.77574 L 69.42124 118.51755 L 69.42124 115.38493 L 69.42124 112.4173 L 69.42124 109.65196 L 69.42124 107.1237 L 69.42124 104.86431 L 69.42124 102.9022 L 69.42124 101.26204 L 69.42124 99.96447 L 69.42124 99.0258 L 69.42124 98.45784 L 69.42124 98.26772" />
    <path d="M 69.42124 158.74016 L 69.42124 158.55004 L 69.42124 157.98207 L 69.42124 157.0434 L 69.42124 155.74583 L 69.42124 154.10568 L 69.42124 152.14357 L 69.42124 149.88417 L 69.42124 147.35591 L 69.42124 144.59058 L 69.42124 141.62294 L 69.42124 138.49033 L 69.42124 135.23213 L 69.42124 131.88932 L 69.42124 128.50394" />
    <path d="M 5.16927 185.19685 A 22.67716535433071 22.67716535433071 0 0 1 -17.50789 207.87402 L -17.50789 207.73143 L -17.50789 207.30545 L -17.50789 206.60145 L -17.50789 205.62827 L -17.50789 204.39816 L -17.50789 202.92657 L -17.50789 201.23203 L -17.50789 199.33583 L -17.50789 197.26183 L -17.50789 195.0361 L -17.50789 192.68664 L -17.50789 190.24299 L -17.50789 187.73589 L -17.50789 185.19685" />
    <path d="M 5.16927 -185.19685 L 5.02668 -185.19685 L 4.60071 -185.19685 L 3.8967 -185.19685 L 2.92353 -185.19685 L 1.69341 -185.19685 L 0.22183 -185.19685 L -1.47272 -185.19685 L -3.36891 -185.19685 L -5.44291 -185.19685 L -7.66864 -185.19685 L -10.0181 -185.19685 L -12.46175 -185.19685 L -14.96886 -185.19685 L -17.50789 -185.19685" />
    <path d="M 5.16927 185.19685 L 5.02668 185.19685 L 4.60071 185.19685 L 3.8967 185.19685 L 2.92353 185.19685 L 1.69341 185.19685 L 0.22183 185.19685 L -1.47272 185.19685 L -3.36891 185.19685 L -5.44291 185.19685 L -7.66864 185.19685 L -10.0181 185.19685 L -12.46175 185.19685 L -14.96886 185.19685 L -17.50789 185.19685" />
    <path d="M 5.16927 -185.19685 A 22.67716535433071 22.67716535433071 0 0 0 -17.50789 -207.87402" />
    <path d="M -70.42128 -185.19685 L -70.27869 -185.19685 L -69.85272 -185.19685 L -69.14871 -185.19685 L -68.17553 -185.19685 L -66.94542 -185.19685 L -65.47384 -185.19685 L -63.77929 -185.19685 L -61.8831 -185.19685 L -59.80909 -185.19685 L -57.58337 -185.19685 L -55.23391 -185.19685 L -52.79026 -185.19685 L -50.28315 -185.19685 L -47.74411 -185.19685" />
    <path d="M -70.42128 185.19685 L -70.27869 185.19685 L -69.85272 185.19685 L -69.14871 185.19685 L -68.17553 185.19685 L -66.94542 185.19685 L -65.47384 185.19685 L -63.77929 185.19685 L -61.8831 185.19685 L -59.80909 185.19685 L -57.58337 185.19685 L -55.23391 185.19685 L -52.79026 185.19685 L -50.28315 185.19685 L -47.74411 185.19685" />
    <path d="M -70.42128 -185.19685 A 22.67716535433071 22.67716535433071 0 0 1 -47.74411 -207.87402" />
    <path d="M 5.16927 175.89691 C 7.14845 175.27458 9.07625 174.48883 10.92655 173.5503 C 12.77694 172.61193 14.54984 171.52078 16.22128 170.29165 C 17.95688 169.01555 19.58338 167.59018 21.07656 166.0369 C 22.56991 164.48373 23.92995 162.80266 25.13693 161.01806 C 26.34407 159.23356 27.39817 157.34554 28.28392 155.3814 C 29.16983 153.41737 29.8874 151.37721 30.42581 149.29134" />
    <path d="M 5.16927 81.11096 C 8.1838 82.05851 11.07866 83.38653 13.7632 85.05339 C 16.4482 86.7195 18.92288 88.72445 21.10971 91.00546 C 23.34138 93.33191 25.27335 95.94575 26.84267 98.76176 C 28.41283 101.5773 29.62034 104.59501 30.42581 107.71654" />
    <path d="M 50.5236 107.71654 L 30.42581 107.71654" />
    <path d="M 58.08266 90.70866 C 57.50875 90.7086 56.93488 90.77424 56.37581 90.90389 C 55.81672 91.03342 55.27249 91.22694 54.75713 91.47948 C 54.24173 91.7319 53.75525 92.04332 53.31023 92.4057 C 52.95724 92.69305 52.6303 93.01238 52.3347 93.3585 C 51.75609 94.03541 51.2987 94.81582 50.99082 95.6514 C 50.68227 96.48673 50.52324 97.37721 50.5236 98.26772" />
    <path d="M 61.86219 90.70866 L 58.08266 90.70866" />
    <path d="M 61.86219 166.29921 L 58.08266 166.29921" />
    <path d="M 61.86219 166.29921 C 62.43609 166.29927 63.00996 166.23363 63.56903 166.10399 C 64.12812 165.97446 64.67236 165.78093 65.18771 165.5284 C 65.70312 165.27597 66.18959 164.96455 66.63462 164.60217 C 66.98761 164.31482 67.31455 163.99549 67.61014 163.64938 C 68.18875 162.97247 68.64614 162.19205 68.95403 161.35648 C 69.26257 160.52115 69.42161 159.63066 69.42124 158.74016" />
</svg>