<svg viewBox="0 0 800 800" xmlns="http://www.w3.org/2000/svg"><path d="M606.9151643424823,409.19888737751927 L387.2893160979382,535.7579325191386 M387.2893160979382,535.7579325191386 L387.22448455046424,501.238363210857 M606.9333488987835,374.7273172352748 L387.22448455046424,501.238363210857 M606.9151643424823,409.19888737751927 L606.9333488987835,374.7273172352748 M387.2893160979382,535.7579325191386 L536.6844124203574,622.2207755726693 M536.6844124203574,622.2207755726693 L536.6760691635079,587.6685666417717 M387.22448455046424,501.238363210857 L536.6760691635079,587.6685666417717 M756.3101231244441,495.18254781111654 L606.9151643424823,409.19888737751927 M756.3847958156443,460.6783383525072 L606.9333488987835,374.7273172352748 M756.3101231244441,495.18254781111654 L756.3847958156443,460.6783383525072 M536.6844124203574,622.2207755726693 L756.3101231244441,495.18254781111654 M536.6760691635079,587.6685666417717 L756.3847958156443,460.6783383525072" stroke="black"  stroke-width="4"  fill="red"/>
<path d="M558.7020220108906,382.533767154806 L558.7020220108906,392.6591354984782 M312.7651271732036,524.0851176137996 L312.7924504589316,534.226257423216 M558.7020220108906,382.533767154806 L312.7651271732036,524.0851176137996 M558.7020220108906,392.6591354984782 L312.7924504589316,534.226257423216 M804.6389168485778,524.0851176137996 L804.6115935628497,534.226257423216 M804.6389168485778,524.0851176137996 L558.7020220108906,382.533767154806 M804.6115935628497,534.226257423216 L558.7020220108906,392.6591354984782 M558.7020220108907,666.519980737272 L558.7020220108907,676.6768919778197 M312.7651271732036,524.0851176137996 L558.7020220108907,666.519980737272 M312.7924504589316,534.226257423216 L558.7020220108907,676.6768919778197 M558.7020220108907,666.519980737272 L804.6389168485778,524.0851176137996 M549.9409508849617,407.7463618360757 L548.0991850721291,406.3923689897052 M548.0991850721291,406.3923689897052 L546.8737612320172,404.823963480808 M546.8737612320172,404.823963480808 L546.3358540796189,403.1323216594028 M546.3358540796189,403.1323216594028 L546.516642506682,401.41578264111683 M546.516642506682,401.41578264111683 L547.4055362318081,399.77408514209316 M547.4055362318081,399.77408514209316 L548.9508182057557,398.30262541769577 M548.9508182057557,398.30262541769577 L551.0626471608066,397.08687061281245 M551.0626471608066,397.08687061281245 L553.6182819949961,396.19743559694405 M553.6182819949961,396.19743559694405 L556.4692497370066,395.68596957749656 M556.4692497370066,395.68596957749656 L559.4499057139185,395.5821667606487 M559.4499057139185,395.5821667606487 L562.3871295091895,395.89205696235746 M562.3871295091895,395.89205696235746 L565.110275798746,396.5976513227117 M565.110275798746,396.5976513227117 L567.4611516252127,397.65797159640806 M567.4611516252127,397.65797159640806 L569.3031398278429,399.0114449040436 M569.3031398278429,399.0114449040436 L570.5291798860201,400.57944989566573 M570.5291798860201,400.57944989566573 L571.0679559211443,402.27090197299253 M571.0679559211443,402.27090197299253 L570.8880899843244,403.98750548894134 M570.8880899843244,403.98750548894134 L569.9999610339089,405.629506952439 M569.9999610339089,405.629506952439 L568.4551109118715,407.1014404719039 M568.4551109118715,407.1014404719039 L566.3432819568318,408.3177303638925 M566.3432819568318,408.3177303638925 L563.7872152707447,409.2076391748687 M563.7872152707447,409.2076391748687 L560.9354827540158,409.71940915683507 M560.9354827540158,409.71940915683507 L557.9539042868389,409.82327647205517 M557.9539042868389,409.82327647205517 L555.0158116088253,409.51319652725334 M555.0158116088253,409.51319652725334 L552.2920491012061,408.807201647669 M552.2920491012061,408.807201647669 L549.9409508849617,407.7463618360757 M339.09110755023784,529.1568144370332 L337.25071788591526,527.7955899704682 M337.25071788591526,527.7955899704682 L336.0293099171752,526.2188079421039 M336.0293099171752,526.2188079421039 L335.49782459430696,524.5181317471639 M335.49782459430696,524.5181317471639 L335.68706705171275,522.7924257340644 M335.68706705171275,522.7924257340644 L336.58595535124834,521.1419612481435 M336.58595535124834,521.1419612481435 L338.1421913283351,519.6626439097806 M338.1421913283351,519.6626439097806 L340.2652971430932,518.4403971509252 M340.2652971430932,518.4403971509252 L342.8318764868802,517.5462127916137 M342.8318764868802,517.5462127916137 L345.6928207619145,517.0320157235701 M345.6928207619145,517.0320157235701 L348.6819059266024,516.9276586399624 M348.6819059266024,516.9276586399624 L351.625522193155,517.2392035388524 M351.625522193155,517.2392035388524 L354.3526529797258,517.9485655500398 M354.3526529797258,517.9485655500398 L356.70487395035275,519.0145477090914 M356.70487395035275,519.0145477090914 L358.5454896110283,520.375248469518 M358.5454896110283,520.375248469518 L359.7675189534609,521.9516267679171 M359.7675189534609,521.9516267679171 L360.29987868269535,523.6521116967746 M360.29987868269535,523.6521116967746 L360.11156334174933,525.3778827248954 M360.11156334174933,525.3778827248954 L359.2134424859478,527.0286536134963 M359.2134424859478,527.0286536134963 L357.65763846113293,528.508448547404 M357.65763846113293,528.508448547404 L355.53453015510013,529.7312346854869 M355.53453015510013,529.7312346854869 L352.96751444721497,530.6258966403836 M352.96751444721497,530.6258966403836 L350.10579989802113,531.1404001091369 M350.10579989802113,531.1404001091369 L347.1157870162654,531.2448222084809 M347.1157870162654,531.2448222084809 L344.1712981101657,530.9330860445017 M344.1712981101657,530.9330860445017 L341.4435496794117,530.2233203013782 M341.4435496794117,530.2233203013782 L339.09110755023784,529.1568144370332 M760.7440633146912,529.1568144370332 L758.8910991973733,527.7955899704683 M758.8910991973733,527.7955899704683 L757.6551255401769,526.2188079421039 M757.6551255401769,526.2188079421039 L757.1079300435654,524.518131747164 M757.1079300435654,524.518131747164 L757.2812311116718,522.7924257340644 M757.2812311116718,522.7924257340644 L758.1648730733637,521.1419612481436 M758.1648730733637,521.1419612481436 L759.7074437022341,519.6626439097806 M759.7074437022341,519.6626439097806 L761.8192588850684,518.4403971509253 M761.8192588850684,518.4403971509253 L764.3775781075665,517.5462127916138 M764.3775781075665,517.5462127916138 L767.2337724335505,517.0320157235701 M767.2337724335505,517.0320157235701 L770.2218935887931,516.9276586399625 M770.2218935887931,516.9276586399625 L773.1683877838457,517.2392035388524 M773.1683877838457,517.2392035388524 L775.9020713759862,517.9485655500398 M775.9020713759862,517.9485655500398 L778.264139467997,519.0145477090914 M778.264139467997,519.0145477090914 L780.1173247438776,520.375248469518 M780.1173247438776,520.375248469518 L781.353916045269,521.9516267679171 M781.353916045269,521.9516267679171 L781.9019841814063,523.6521116967746 M781.9019841814063,523.6521116967746 L781.7296108303426,525.3778827248954 M781.7296108303426,525.3778827248954 L780.8467391428114,527.0286536134963 M780.8467391428114,527.0286536134963 L779.3046048780518,528.508448547404 M779.3046048780518,528.508448547404 L777.1927921865147,529.7312346854869 M777.1927921865147,529.7312346854869 L774.6340410117573,530.6258966403838 M774.6340410117573,530.6258966403838 L771.7770792420224,531.140400109137 M771.7770792420224,531.140400109137 L768.7880309703012,531.2448222084809 M768.7880309703012,531.2448222084809 L765.8406623688707,530.9330860445017 M765.8406623688707,530.9330860445017 L763.1063574030311,530.2233203013782 M763.1063574030311,530.2233203013782 L760.7440633146912,529.1568144370332 M606.9066116478893,425.4118104028203 L387.31980810233506,551.9934058363278 M756.2750025505488,511.41080500278093 L606.9066116478893,425.4118104028203 M536.6883364722505,638.4715830581063 L756.2750025505488,511.41080500278093 M387.31980810233506,551.9934058363278 L536.6883364722505,638.4715830581063 M549.8940950171016,651.2165931354664 L548.0424807874406,649.8480789579318 M548.0424807874406,649.8480789579318 L546.810505535592,648.2628531246547 M546.810505535592,648.2628531246547 L546.269724210262,646.5530699890546 M546.269724210262,646.5530699890546 L546.4514819000062,644.8181233515328 M546.4514819000062,644.8181233515328 L547.345131122901,643.1588214645975 M547.345131122901,643.1588214645975 L548.8986777971969,641.6715834041673 M548.8986777971969,641.6715834041673 L551.0217999549445,640.4427925530292 M551.0217999549445,640.4427925530292 L553.5911001248487,639.5438207081407 M553.5911001248487,639.5438207081407 L556.4573116284216,639.0268706586992 M556.4573116284216,639.0268706586992 L559.4539044631362,638.9219548570965 M559.4539044631362,638.9219548570965 L562.4068330025789,639.2351677418291 M562.4068330025789,639.2351677418291 L565.1445399156592,639.9483276617121 M565.1445399156592,639.9483276617121 L567.5079866727216,641.0200171773957 M567.5079866727216,641.0200171773957 L569.3598256770404,642.3880034366983 M569.3598256770404,642.3880034366983 L570.592423755144,643.9728222928676 M570.592423755144,643.9728222928676 L571.1340832809103,645.6824126240596 M571.1340832809103,645.6824126240596 L570.9532579739955,647.4174247995093 M570.9532579739955,647.4174247995093 L570.0603817270902,649.0770355534775 M570.0603817270902,649.0770355534775 L568.507271535791,650.5647550506852 M568.507271535791,650.5647550506852 L566.3841493780548,651.7940896192009 M566.3841493780548,651.7940896192009 L563.8144127251667,652.6935429009079 M563.8144127251667,652.6935429009079 L560.9474282455964,653.210801815396 M560.9474282455964,653.210801815396 L557.9499030280305,653.3157831556475 M557.9499030280305,653.3157831556475 L554.9960962881341,653.0023774675077 M554.9960962881341,653.0023774675077 L552.2577665488017,652.2888105685304 M552.2577665488017,652.2888105685304 L549.8940950171016,651.2165931354664 M558.7020220108907,676.6768919778197 L804.6115935628497,534.226257423216 M549.9419217483401,417.87454647485396 L552.292759442769,418.93550471643135 M552.292759442769,418.93550471643135 L555.0162201143055,419.64157840880154 M555.0162201143055,419.64157840880154 L557.9539871937375,419.95169296819256 M557.9539871937375,419.95169296819256 L560.9352352409912,419.847814058194 M560.9352352409912,419.847814058194 L563.7866517339016,419.3359869462319 M563.7866517339016,419.3359869462319 L566.3424351753779,418.44597878976396 M566.3424351753779,418.44597878976396 L568.454030132755,417.22955311030347 M568.454030132755,417.22955311030347 L569.9987091041961,415.7574552534967 M569.9987091041961,415.7574552534967 L570.8867396893451,414.11527045258975 M570.8867396893451,414.11527045258975 L571.0665857475249,412.39847525551534 M571.0665857475249,412.39847525551534 L570.5278694587031,410.7068342915149 M570.5278694587031,410.7068342915149 L569.3019652839657,409.1386541862746 M569.3019652839657,409.1386541862746 L567.4601811920624,407.7850297141318 M567.4601811920624,407.7850297141318 L565.109565838131,406.7245910108926 M565.109565838131,406.7245910108926 L562.3867212481068,406.01891783809265 M562.3867212481068,406.01891783809265 L559.4498228588778,405.7089930219558 M559.4498228588778,405.7089930219558 L556.4694970974701,405.8128074335273 M556.4694970974701,405.8128074335273 L553.6188452098083,406.32433058271226 M553.6188452098083,406.32433058271226 L551.0634935245339,407.21386494367016 M551.0634935245339,407.21386494367016 L548.9518985671456,408.4297555355708 M548.9518985671456,408.4297555355708 L547.4067878394902,409.9013795969076 M547.4067878394902,409.9013795969076 L546.5179926491005,411.5432604330825 M546.5179926491005,411.5432604330825 L546.337224305096,413.2599911324391 M546.337224305096,413.2599911324391 L546.8750719037314,414.9518218406793 M546.8750719037314,414.9518218406793 L548.1003599969538,416.5204024635348 M548.1003599969538,416.5204024635348 L549.9419217483401,417.87454647485396 M339.1155087629557,539.2985175178924 L341.4676900736374,540.3651418142906 M341.4676900736374,540.3651418142906 L344.19513578476233,541.0749863715525 M344.19513578476233,541.0749863715525 L347.1392976732397,541.386757150709 M347.1392976732397,541.386757150709 L350.1289782631296,541.28232345639 M350.1289782631296,541.28232345639 L352.9903745725866,540.7677628566666 M352.9903745725866,540.7677628566666 L355.5571046049136,539.8730015545593 M355.5571046049136,539.8730015545593 L357.6799764087044,538.6500796266052 M357.6799764087044,538.6500796266052 L359.23560685035017,537.170120352375 M359.23560685035017,537.170120352375 L360.13362712167896,535.5191661229397 M360.13362712167896,535.5191661229397 L360.3219207070505,533.7932034100003 M360.3219207070505,533.7932034100003 L359.78961929839204,532.0925295907173 M359.78961929839204,532.0925295907173 L358.5677249475975,530.5159761751224 M358.5677249475975,530.5159761751224 L356.7273130914392,529.1551242470232 M356.7273130914392,529.1551242470232 L354.375352890435,528.0890236558989 M354.375352890435,528.0890236558989 L351.648524686469,527.3795828305581 M351.648524686469,527.3795828305581 L348.70523524374926,527.068003316484 M348.70523524374926,527.068003316484 L345.71648216476876,527.1723719950689 M345.71648216476876,527.1723719950689 L342.8558559581707,527.6866261940941 M342.8558559581707,527.6866261940941 L340.2895621927432,528.580909900634 M340.2895621927432,528.580909900634 L338.1666928793969,529.8032924493803 M338.1666928793969,529.8032924493803 L336.6106305812075,531.2827741280835 M336.6106305812075,531.2827741280835 L335.71184303650205,532.9334219548502 M335.71184303650205,532.9334219548502 L335.52262254062896,534.6593196527706 M335.52262254062896,534.6593196527706 L336.0540497372997,536.3601847381291 M336.0540497372997,536.3601847381291 L337.27532285266875,537.9371418836741 M337.27532285266875,537.9371418836741 L339.1155087629557,539.2985175178924 M760.7216141989907,539.2985175178924 L763.0836452796102,540.3651418142907 M763.0836452796102,540.3651418142907 L765.8176460688485,541.0749863715525 M765.8176460688485,541.0749863715525 L768.764687012733,541.3867571507091 M768.764687012733,541.3867571507091 L771.7534032069439,541.28232345639 M771.7534032069439,541.28232345639 L774.6100477930963,540.7677628566668 M774.6100477930963,540.7677628566668 L777.1685151287975,539.8730015545593 M777.1685151287975,539.8730015545593 L779.2800938280875,538.6500796266052 M779.2800938280875,538.6500796266052 L780.8220575471416,537.170120352375 M780.8220575471416,537.170120352375 L781.7048320384965,535.5191661229397 M781.7048320384965,535.5191661229397 L781.8771871760932,533.7932034100003 M781.8771871760932,533.7932034100003 L781.3291808506092,532.0925295907173 M781.3291808506092,532.0925295907173 L780.0927277761002,530.5159761751224 M780.0927277761002,530.5159761751224 L778.2397490972508,529.1551242470232 M778.2397490972508,529.1551242470232 L775.8779439624789,528.0890236558989 M775.8779439624789,528.0890236558989 L773.1445644086723,527.3795828305581 M773.1445644086723,527.3795828305581 L770.1983976767876,527.068003316484 M770.1983976767876,527.068003316484 L767.2106083930969,527.1723719950689 M767.2106083930969,527.1723719950689 L764.3547310803381,527.6866261940941 M764.3547310803381,527.6866261940941 L761.7966956011678,528.580909900634 M761.7966956011678,528.580909900634 L759.6851144114107,529.8032924493803 M759.6851144114107,529.8032924493803 L758.1427144254446,531.2827741280836 M758.1427144254446,531.2827741280836 L757.2591698312297,532.9334219548502 M757.2591698312297,532.9334219548502 L757.0858871827486,534.6593196527708 M757.0858871827486,534.6593196527708 L757.6330210624965,536.3601847381291 M757.6330210624965,536.3601847381291 L758.8688566298345,537.9371418836743 M758.8688566298345,537.9371418836743 L760.7216141989907,539.2985175178924 M549.8950762923905,661.3718146092893 L552.2584845085186,662.4441504714146 M552.2584845085186,662.4441504714146 L554.9965091747549,663.1577961825144 M554.9965091747549,663.1577961825144 L557.949986824095,663.4712364849397 M557.949986824095,663.4712364849397 L560.9471780780315,663.3662435500123 M560.9471780780315,663.3662435500123 L563.8138431445431,662.8489275060216 M563.8138431445431,662.8489275060216 L566.3832935152773,661.949374879631 M566.3832935152773,661.949374879631 L568.5061791661508,660.7199045246474 M568.5061791661508,660.7199045246474 L570.0591163718332,659.2320206911567 M570.0591163718332,659.2320206911567 L570.9518931991408,657.5722266007592 M570.9518931991408,657.5722266007592 L571.1326984148059,655.8370227449816 M571.1326984148059,655.8370227449816 L570.5910992765328,654.1272435276749 M570.5910992765328,654.1272435276749 L569.3586385393412,652.5422495582044 M569.3586385393412,652.5422495582044 L567.5070058345993,651.1741121345124 M567.5070058345993,651.1741121345124 L565.1438223430339,650.1023041892776 M565.1438223430339,650.1023041892776 L562.406420364297,649.3890654568943 M562.406420364297,649.3890654568943 L559.4538207197656,649.075817957697 M559.4538207197656,649.075817957697 L556.4575616409652,649.1807453540366 M556.4575616409652,649.1807453540366 L553.5916693782478,649.6977525332674 M553.5916693782478,649.6977525332674 L551.0226553932583,650.5968237232864 M551.0226553932583,650.5968237232864 L548.8997697423735,651.8257503613971 M548.8997697423735,651.8257503613971 L547.3463961509337,653.3131527585571 M547.3463961509337,653.3131527585571 L546.4528465198396,654.9726379822084 M546.4528465198396,654.9726379822084 L546.2711091290606,656.7077763001189 M546.2711091290606,656.7077763001189 L546.8118302625421,658.4177483216549 M546.8118302625421,658.4177483216549 L548.0436683122314,660.0031492678554 M548.0436683122314,660.0031492678554 L549.8950762923905,661.3718146092893 M549.9409508849617,407.7463618360757 L549.9419217483401,417.87454647485396 M339.09110755023784,529.1568144370332 L339.1155087629557,539.2985175178924 M760.7440633146912,529.1568144370332 L760.7216141989907,539.2985175178924 M606.9066116478893,425.4118104028203 L606.9151643424823,409.19888737751927 M387.31980810233506,551.9934058363278 L387.2893160979382,535.7579325191386 M606.9151643424823,409.19888737751927 L387.2893160979382,535.7579325191386 M756.2750025505488,511.41080500278093 L756.3101231244441,495.18254781111654 M756.3101231244441,495.18254781111654 L606.9151643424823,409.19888737751927 M536.6883364722505,638.4715830581063 L536.6844124203574,622.2207755726693 M387.2893160979382,535.7579325191386 L536.6844124203574,622.2207755726693 M536.6844124203574,622.2207755726693 L756.3101231244441,495.18254781111654 M549.8940950171016,651.2165931354664 L549.8950762923905,661.3718146092893" stroke="black"  stroke-width="4"  fill="red"/>
<path d="M227.78012708037568,330.51335348020365 L227.83480081563235,345.62635676063485 M-4.6389168485777645,463.57441199592967 L-4.5455712083358435,478.7096083720978 M227.78012708037568,330.51335348020365 L-4.6389168485777645,463.57441199592967 M227.83480081563235,345.62635676063485 L-4.5455712083358435,478.7096083720978 M528.1060907168071,503.8970385638036 L528.111164949428,519.0389348826063 M528.1060907168071,503.8970385638036 L227.78012708037568,330.51335348020365 M528.111164949428,519.0389348826063 L227.83480081563235,345.62635676063485 M295.68041239765967,637.9768154484652 L295.7241618337231,653.1409052233691 M-4.6389168485777645,463.57441199592967 L295.68041239765967,637.9768154484652 M-4.5455712083358435,478.7096083720978 L295.7241618337231,653.1409052233691 M295.68041239765967,637.9768154484652 L528.1060907168071,503.8970385638036 M223.1301521595893,370.600791992267 L220.39620913389788,368.581891631796 M220.39620913389788,368.581891631796 L218.58439965008802,366.24336091218254 M218.58439965008802,366.24336091218254 L217.79994144736247,363.7211948715783 M217.79994144736247,363.7211948715783 L218.0881983210483,361.1619734835176 M218.0881983210483,361.1619734835176 L219.4322724293715,358.71443051396045 M219.4322724293715,358.71443051396045 L221.75388448974815,356.5207551018471 M221.75388448974815,356.5207551018471 L224.9180645434201,354.70834721429924 M224.9180645434201,354.70834721429924 L228.7409087959803,353.3824436513821 M228.7409087959803,353.3824436513821 L233.00032759030086,352.6199908014761 M233.00032759030086,352.6199908014761 L237.4489167098618,352.46525420964343 M237.4489167098618,352.46525420964343 L241.82829271813554,352.927196979844 M241.82829271813554,352.927196979844 L245.88416818721353,353.9790436073493 M245.88416818721353,353.9790436073493 L249.38092646847028,355.559717739308 M249.38092646847028,355.559717739308 L252.1153728951438,357.5774622256817 M252.1153728951438,357.5774622256817 L253.928560858614,359.91510187186043 M253.928560858614,359.91510187186043 L254.7149568182109,362.4368457709685 M254.7149568182109,362.4368457709685 L254.42875308198734,364.9962106512613 M254.42875308198734,364.9962106512613 L253.0863771348705,367.44442988075997 M253.0863771348705,367.44442988075997 L250.7657192323477,369.63915939730924 M250.7657192323477,369.63915939730924 L247.60153073841914,371.4527577495335 M247.60153073841914,371.4527577495335 L243.7777173810743,372.7797154083153 M243.7777173810743,372.7797154083153 L239.5165908362262,373.5428445196628 M239.5165908362262,373.5428445196628 L235.06594654438328,373.6977246055744 M235.06594654438328,373.6977246055744 L230.68463876498657,373.2353597047379 M230.68463876498657,373.2353597047379 L226.62739745160513,372.18262199723137 M226.62739745160513,372.18262199723137 L223.1301521595893,370.600791992267 M38.887344023294304,476.1675735715114 L36.15525275539676,474.1392915101499 M36.15525275539676,474.1392915101499 L34.34873324715653,471.78989431013383 M34.34873324715653,471.78989431013383 L33.57269498962512,469.2560091169587 M33.57269498962512,469.2560091169587 L33.87201152771655,466.68489706659966 M33.87201152771655,466.68489706659966 L35.229141522177656,464.2259829434994 M35.229141522177656,464.2259829434994 L37.56504642223592,462.02211635480285 M37.56504642223592,462.02211635480285 L40.74392568442852,460.20128892063883 M40.74392568442852,460.20128892063883 L44.58102160274484,458.86922608178975 M44.58102160274484,458.86922608178975 L48.85341709236229,458.103231459012 M48.85341709236229,458.103231459012 L53.312954622292295,457.94777608657995 M53.312954622292295,457.94777608657995 L57.7006153564414,458.4118646751867 M57.7006153564414,458.4118646751867 L61.76163100862408,459.4685974264771 M61.76163100862408,459.4685974264771 L65.26008647943218,461.0566144481939 M65.26008647943218,461.0566144481939 L67.99268819006102,463.08373257035583 M67.99268819006102,463.08373257035583 L69.8005962081877,465.4322324794797 M69.8005962081877,465.4322324794797 L70.5785829434625,467.9656925856697 M70.5785829434625,467.9656925856697 L70.28132849844599,470.5369491294768 M70.28132849844599,470.5369491294768 L68.92590180385906,472.99654423111684 M68.92590180385906,472.99654423111684 L66.59095120617786,475.2014722792544 M66.59095120617786,475.2014722792544 L63.4120586209645,477.0234984845526 M63.4120586209645,477.0234984845526 L59.573984806426836,478.35662277421216 M59.573984806426836,478.35662277421216 L55.29987088016327,479.1232983770403 M55.29987088016327,479.1232983770403 L50.83826804524574,479.27889824478024 M50.83826804524574,479.27889824478024 L46.448668281935056,478.81438458012417 M46.448668281935056,478.81438458012417 L42.38628406483582,477.75675453132885 M42.38628406483582,477.75675453132885 L38.887344023294304,476.1675735715114 M458.1669747511228,506.41957169254175 L455.4144223457478,504.3886067550635 M455.4144223457478,504.3886067550635 L453.5850842981813,502.03609093237156 M453.5850842981813,502.03609093237156 L452.7851802698868,499.49882316427534 M452.7851802698868,499.49882316427534 L453.06103520988034,496.92429856026934 M453.06103520988034,496.92429856026934 L454.3964377765516,494.4621209804365 M454.3964377765516,494.4621209804365 L456.7136280854261,492.2553391996449 M456.7136280854261,492.2553391996449 L459.87785998397305,490.4320954034967 M459.87785998397305,490.4320954034967 L463.7052261404152,489.0982552718387 M463.7052261404152,489.0982552718387 L467.97340634314116,488.33124418097907 M467.97340634314116,488.33124418097907 L472.434471158267,488.1755825227318 M472.434471158267,488.1755825227318 L476.82934623524307,488.6403061801084 M476.82934623524307,488.6403061801084 L480.90278026890377,489.6984412212783 M480.90278026890377,489.6984412212783 L484.4181537295705,491.2885559942308 M484.4181537295705,491.2885559942308 L487.1712065341782,493.31835467908843 M487.1712065341782,493.31835467908843 L489.0019266692258,495.669971421868 M489.0019266692258,495.669971421868 L489.8037778594417,498.2068132531498 M489.8037778594417,498.2068132531498 L489.5299890818697,500.78148264054755 M489.5299890818697,500.78148264054755 L488.19629834799036,503.24434255722787 M488.19629834799036,503.24434255722787 L485.8800733724342,505.45218790774885 M485.8800733724342,505.45218790774885 L482.7158391722858,507.2766328624925 M482.7158391722858,507.2766328624925 L478.88750360656314,508.611536567167 M478.88750360656314,508.611536567167 L474.61760895602157,509.3792299949577 M474.61760895602157,509.3792299949577 L470.1544774234995,509.5350364364198 M470.1544774234995,509.5350364364198 L465.75765681688335,509.06988683879 M465.75765681688335,509.06988683879 L461.68284414139134,508.0108527139589 M461.68284414139134,508.0108527139589 L458.1669747511228,506.41957169254175 M375.4708917510244,418.29657523434645 L354.0974614232381,407.94599197149364 M354.0974614232381,407.94599197149364 L329.92783995056897,399.89792419819355 M329.92783995056897,399.89792419819355 L303.69384893673805,394.39436377735444 M303.69384893673805,394.39436377735444 L276.1886997484808,391.6006372597449 M276.1886997484808,391.6006372597449 L248.2433623418134,391.60064683460024 M248.2433623418134,391.60064683460024 L220.70178565164224,394.3943589893388 M220.70178565164224,394.3943589893388 L194.396094845707,399.89793138195387 M194.396094845707,399.89793138195387 L170.1215851661456,407.94599197149364 M170.1215851661456,407.94599197149364 L148.61330190547528,418.29657523434673 M148.61330190547528,418.29657523434673 L130.5238088536115,430.6380589854592 M130.5238088536115,430.6380589854592 L116.40363310132142,444.5983748669975 M116.40363310132142,444.5983748669975 L106.68428238883519,459.755871608579 M106.68428238883519,459.755871608579 L101.66502321502492,475.65193901303604 M101.66502321502492,475.65193901303604 L101.50308383045439,491.80455392699713 M101.50308383045439,491.80455392699713 L106.20855693787206,507.72297470128217 M106.20855693787206,507.72297470128217 L115.64325844276976,522.9225163461431 M115.64325844276976,522.9225163461431 L129.5244852963403,536.9394575278448 M129.5244852963403,536.9394575278448 L147.4330598507115,549.3453565513014 M147.4330598507115,549.3453565513014 L168.82575770445217,559.7603455916178 M168.82575770445217,559.7603455916178 L193.05169748290797,567.8650509068068 M193.05169748290797,567.8650509068068 L219.3722648479566,573.4106492703502 M219.3722648479566,573.4106492703502 L246.9838060168438,576.2267437661036 M246.9838060168438,576.2267437661036 L275.04253509355016,576.2267437661036 M275.04253509355016,576.2267437661036 L302.69076205163856,573.4106444445931 M302.69076205163856,573.4106444445931 L329.0835935362411,567.8650436699284 M329.0835935362411,567.8650436699284 L353.41515960876836,559.7603455916178 M353.41515960876836,559.7603455916178 L374.9435495563431,549.345356551301 M374.9435495563431,549.345356551301 L393.01377470354413,536.9394671639567 M393.01377470354413,536.9394671639567 L407.07763182591384,522.9225139385942 M407.07763182591384,522.9225139385942 L416.71038969895204,507.7229698893911 M416.71038969895204,507.7229698893911 L421.62329041435197,491.80455392699713 M421.62329041435197,491.80455392699713 L421.6718385902624,475.65192940277916 M421.6718385902624,475.65192940277916 L416.8596823987669,459.75587641035736 M416.8596823987669,459.75587641035736 L407.3378568639148,444.598372467705 M407.3378568639148,444.598372467705 L393.3995734804316,430.63806857674865 M393.3995734804316,430.63806857674865 L375.4708917510244,418.29657523434645 M273.91986771273196,612.6184540838846 L271.16912944333484,610.5780231041751 M271.16912944333484,610.5780231041751 L269.34505662748234,608.2145430643588 M269.34505662748234,608.2145430643588 L268.55356211231157,605.6654506537606 M268.55356211231157,605.6654506537606 L268.84048119417696,603.0789284506911 M268.84048119417696,603.0789284506911 L270.18895876724895,600.6052774583382 M270.18895876724895,600.6052774583382 L272.52047456112746,598.3882129028535 M272.52047456112746,598.3882129028535 L275.6994499388324,596.5564738516891 M275.6994499388324,596.5564738516891 L279.5411210839904,595.2164190171318 M279.5411210839904,595.2164190171318 L283.8223372614487,594.4458343076933 M283.8223372614487,594.4458343076933 L288.29441228393114,594.2894474060256 M288.29441228393114,594.2894474060256 L292.6976328165831,594.7563362653193 M292.6976328165831,594.7563362653193 L296.77626317496305,595.8194013641045 M296.77626317496305,595.8194013641045 L300.293382120252,597.4169250078975 M300.293382120252,597.4169250078975 L303.0446278519231,599.456181573061 M303.0446278519231,599.456181573061 L304.87009284330276,601.8187562408264 M304.87009284330276,601.8187562408264 L305.66354532241473,604.3674197337257 M305.66354532241473,604.3674197337257 L305.37870144433947,606.9540877334418 M305.37870144433947,606.9540877334418 L304.0319409135154,609.4284258379218 M304.0319409135154,609.4284258379218 L301.7013906370529,611.646561406443 M301.7013906370529,611.646561406443 L298.5224080743329,613.4795100224148 M298.5224080743329,613.4795100224148 L294.67975868771435,614.8206358733191 M294.67975868771435,614.8206358733191 L290.39681730478446,615.5919076949694 M290.39681730478446,615.5919076949694 L285.9226653462782,615.7484403931056 M285.9226653462782,615.7484403931056 L281.5174919453455,615.2811226126498 M281.5174919453455,615.2811226126498 L277.43748016767796,614.2171521380385 M277.43748016767796,614.2171521380385 L273.91986771273196,612.6184540838846 M295.7241618337231,653.1409052233691 L528.111164949428,519.0389348826063 M223.18564304314972,385.72049496054694 L226.68231193249363,387.30258909213575 M226.68231193249363,387.30258909213575 L230.73888356358196,388.3555025708087 M230.73888356358196,388.3555025708087 L235.11946734248187,388.81794466821185 M235.11946734248187,388.81794466821185 L239.56937543645932,388.663038723653 M239.56937543645932,388.663038723653 L243.82979643318032,387.8997821983726 M243.82979643318032,387.8997821983726 L247.65297594576418,386.5726029773579 M247.65297594576418,386.5726029773579 L250.81663916297072,384.7587017877534 M250.81663916297072,384.7587017877534 L253.13691088662634,382.5636057599823 M253.13691088662634,382.5636057599823 L254.4790621633224,380.11497764614376 M254.4790621633224,380.11497764614376 L254.76521575019382,377.5551852721468 M254.76521575019382,377.5551852721468 L253.97894701382342,375.0330201166222 M253.97894701382342,375.0330201166222 L252.16605620755908,372.6949899272731 M252.16605620755908,372.6949899272731 L249.43205955677905,370.6769083098002 M249.43205955677905,370.6769083098002 L245.93587751852237,369.0959700531514 M245.93587751852237,369.0959700531514 L241.88067128117578,368.04394765597067 M241.88067128117578,368.04394765597067 L237.50201863516833,367.58192768991 M237.50201863516833,367.58192768991 L233.05416503377785,367.7366901401496 M233.05416503377785,367.7366901401496 L228.79545122213733,368.499270402857 M228.79545122213733,368.499270402857 L224.97324049267593,369.825395526243 M224.97324049267593,369.825395526243 L221.8095857115404,371.6381062491791 M221.8095857115404,371.6381062491791 L219.48836014428048,373.83214817075043 M219.48836014428048,373.83214817075043 L218.14451126706965,376.28010002351596 M218.14451126706965,376.28010002351596 L217.85630522142174,378.83974890504055 M217.85630522142174,378.83974890504055 L218.64063684211985,381.3623362027678 M218.64063684211985,381.3623362027678 L220.45214962555164,383.7012574670424 M220.45214962555164,383.7012574670424 L223.18564304314972,385.72049496054694 M38.973501152242534,491.304863676804 L42.47186424138556,492.89430877064694 M42.47186424138556,492.89430877064694 L46.53357708090505,493.9521145954639 M46.53357708090505,493.9521145954639 L50.922450101495315,494.4167054588012 M50.922450101495315,494.4167054588012 L55.383313109063295,494.26107973170707 M55.383313109063295,494.26107973170707 L59.65671718181278,493.49427671144383 M59.65671718181278,493.49427671144383 L63.49415242099019,492.1609308533917 M63.49415242099019,492.1609308533917 L66.67251484894422,490.33860180215015 M66.67251484894422,490.33860180215015 L69.0070745211516,488.1333072322048 M69.0070745211516,488.1333072322048 L70.36227220846695,485.6733032341282 M70.36227220846695,485.6733032341282 L70.65947282888334,483.1016191836468 M70.65947282888334,483.1016191836468 L69.88161051639656,480.56773780793566 M69.88161051639656,480.56773780793566 L68.07399789214202,478.21884734320616 M68.07399789214202,478.21884734320616 L65.34184533321525,476.19139207898854 M65.34184533321525,476.19139207898854 L61.84396665635734,474.60311092385433 M61.84396665635734,474.60311092385433 L57.78362192985145,473.546202397011 M57.78362192985145,473.546202397011 L53.39668729659286,473.0820366099451 M53.39668729659286,473.0820366099451 L48.93788890928488,473.2375178416559 M48.93788890928488,473.2375178416559 L44.666202702421856,474.003639881513 M44.666202702421856,474.003639881513 L40.82974503342746,475.33592428820015 M40.82974503342746,475.33592428820015 L37.65139592187177,477.1570545676813 M37.65139592187177,477.1570545676813 L35.315882261597835,479.361287677631 M35.315882261597835,479.361287677631 L33.95898183764376,481.82061069681197 M33.95898183764376,481.82061069681197 L33.65971980728352,484.39215025376996 M33.65971980728352,484.39215025376996 L34.43563428855316,486.9264567166883 M34.43563428855316,486.9264567166883 L36.24185886473845,489.27624447277884 M36.24185886473845,489.27624447277884 L38.973501152242534,491.304863676804 M458.1836490734237,521.5618867584105 L461.6989358974617,523.1534319128177 M461.6989358974617,523.1534319128177 L465.7730730757807,524.2126418140241 M465.7730730757807,524.2126418140241 L470.1691645514803,524.6778686136801 M470.1691645514803,524.6778686136801 L474.6315557495204,524.5220363128138 M474.6315557495204,524.5220363128138 L478.90074194455127,523.7542154673366 M478.90074194455127,523.7542154673366 L482.72844215936107,522.4190901922148 M482.72844215936107,522.4190901922148 L485.89215106008993,520.594342390861 M485.89215106008993,520.594342390861 L488.2079913185949,518.3861305192588 M488.2079913185949,518.3861305192588 L489.5414602482753,515.9228617050871 M489.5414602482753,515.9228617050871 L489.8152029772209,513.3477648098187 M489.8152029772209,513.3477648098187 L489.01348411205527,510.81050170454887 M489.01348411205527,510.81050170454887 L487.1830669296396,508.4584944049014 M487.1830669296396,508.4584944049014 L484.43047005569207,506.4283585784316 M484.43047005569207,506.4283585784316 L480.9156789971617,504.83797967271374 M480.9156789971617,504.83797967271374 L476.8429200037619,503.7796688553416 M476.8429200037619,503.7796688553416 L472.4487734126432,503.3148679960207 M472.4487734126432,503.3148679960207 L467.98844824656976,503.47055551364446 M467.98844824656976,503.47055551364446 L463.7209759305769,504.237694022059 M463.7209759305769,504.237694022059 L459.89424480322543,505.5717557239595 M459.89424480322543,505.5717557239595 L456.73053820295314,507.39530236648653 M456.73053820295314,507.39530236648653 L454.4137329309246,509.6024506681546 M454.4137329309246,509.6024506681546 L453.0785527359292,512.0650371453473 M453.0785527359292,512.0650371453473 L452.80274452971565,514.6399892571961 M452.80274452971565,514.6399892571961 L453.6025168788309,517.1776782993625 M453.6025168788309,517.1776782993625 L455.4315524323916,519.5305846790957 M455.4315524323916,519.5305846790957 L458.1836490734237,521.5618867584105 M273.96721041820103,627.7783564591622 L277.4842397332353,629.3773186427612 M277.4842397332353,629.3773186427612 L281.5635742905417,630.4414648913171 M281.5635742905417,630.4414648913171 L285.9680157881113,630.9088598727133 M285.9680157881113,630.9088598727133 L290.44142375186686,630.7523013155378 M290.44142375186686,630.7523013155378 L294.7236523443469,629.980902077981 M294.7236523443469,629.980902077981 L298.5656616228554,628.6395546596527 M298.5656616228554,628.6395546596527 L301.7441139835234,626.8063032010562 M301.7441139835234,626.8063032010562 L304.07427478001966,624.5878011160493 M304.07427478001966,624.5878011160493 L305.42080916021723,622.1130541189114 M305.42080916021723,622.1130541189114 L305.7056033121261,619.5259586160465 M305.7056033121261,619.5259586160465 L304.9122803627465,616.9768738534813 M304.9122803627465,616.9768738534813 L303.08711657289666,614.6139086325612 M303.08711657289666,614.6139086325612 L300.33632616632286,612.5743149287644 M300.33632616632286,612.5743149287644 L296.81979019806187,610.9765271543927 M296.81979019806187,610.9765271543927 L292.74183660175186,609.9132862807892 M292.74183660175186,609.9132862807892 L288.33934732375144,609.4463202201407 M288.33934732375144,609.4463202201407 L283.8680156055008,609.6027329809885 M283.8680156055008,609.6027329809885 L279.5875116443544,610.3734451069968 M279.5875116443544,610.3734451069968 L275.746480281081,611.713721510012 M275.746480281081,611.713721510012 L272.56803510184596,613.5457634049686 M272.56803510184596,613.5457634049686 L270.23690910781545,615.7631944779728 M270.23690910781545,615.7631944779728 L268.8886582554378,618.2372543636469 M268.8886582554378,618.2372543636469 L268.6017895893943,620.8242040700059 M268.6017895893943,620.8242040700059 L269.3931552260847,623.373717749856 M269.3931552260847,623.373717749856 L271.21692730406113,625.737588341953 M271.21692730406113,625.737588341953 L273.96721041820103,627.7783564591622 M223.1301521595893,370.600791992267 L223.18564304314972,385.72049496054694 M38.887344023294304,476.1675735715114 L38.973501152242534,491.304863676804 M458.1669747511228,506.41957169254175 L458.1836490734237,521.5618867584105 M375.26842641372065,317.3173620112126 L353.87143048418505,306.97832353163756 M353.87143048418505,306.97832353163756 L329.67515305401776,298.93923596233 M329.67515305401776,298.93923596233 L303.41222002542906,293.4418183382883 M303.41222002542906,293.4418183382883 L275.87671355257453,290.6512105993154 M275.87671355257453,290.6512105993154 L247.90051544361728,290.65122016348124 M247.90051544361728,290.65122016348124 L220.32850099401537,293.44181355561744 M220.32850099401537,293.44181355561744 L193.99370969316885,298.93924313807315 M193.99370969316885,298.93924313807315 L169.69231222723656,306.97832353163756 M169.69231222723656,306.97832353163756 L148.16016519817646,317.3173620112128 M148.16016519817646,317.3173620112128 L130.05055538033434,329.64508716655064 M130.05055538033434,329.64508716655064 L115.91462298658246,343.58984863800714 M115.91462298658246,343.58984863800714 L106.18436000310027,358.73046778378944 M106.18436000310027,358.73046778378944 L101.15937313577444,374.60884717296824 M101.15937313577444,374.60884717296824 L100.99707517945353,390.7435011520115 M100.99707517945353,390.7435011520115 L105.70758112076868,406.6442337789769 M105.70758112076868,406.6442337789769 L115.15256460629774,421.82689754179444 M115.15256460629774,421.82689754179444 L129.04901896962656,435.828283952058 M129.04901896962656,435.828283952058 L146.97730967101268,448.22042394312416 M146.97730967101268,448.22042394312416 L168.39361532577036,458.62386777443754 M168.39361532577036,458.62386777443754 L192.64633536084523,466.71959251142385 M192.64633536084523,466.71959251142385 L218.9960361475941,472.2590478005213 M218.9960361475941,472.2590478005213 L246.6381700292428,475.072023369939 M246.6381700292428,475.072023369939 L274.7280108794601,475.072023369939 M274.7280108794601,475.072023369939 L302.40691195724145,472.2590429801092 M302.40691195724145,472.2590429801092 L328.829037182335,466.71958528256283 M328.829037182335,466.71958528256283 L353.18761779319163,458.62386777443754 M353.18761779319163,458.62386777443754 L374.73991649732875,448.2204239431238 M374.73991649732875,448.2204239431238 L392.83021620943794,435.82829357747977 M392.83021620943794,435.82829357747977 L406.90970567291447,421.82689513691804 M406.90970567291447,421.82689513691804 L416.55318439213,406.6442289724308 M416.55318439213,406.6442289724308 L421.4715774109664,390.7435011520115 M421.4715774109664,390.7435011520115 L421.5202330894511,374.60883757340133 M421.5202330894511,374.60883757340133 L416.70280766884173,358.7304725802229 M416.70280766884173,358.7304725802229 L407.1705069263659,343.5898462413872 M407.1705069263659,343.5898462413872 L393.2168692803559,329.6450967471503 M393.2168692803559,329.6450967471503 L375.26842641372065,317.3173620112126 M375.4708917510244,418.29657523434645 L375.26842641372065,317.3173620112126 M273.91986771273196,612.6184540838846 L273.96721041820103,627.7783564591622 M375.26842641372065,317.3173620112126 L373.68250858514216,299.2773537574336 M373.68250858514216,299.2773537574336 L369.05511642492127,283.64167099553435 M369.05511642492127,283.64167099553435 L361.54722917904326,270.9638946179815 M361.54722917904326,270.9638946179815 L351.4216101385659,261.69422231213855 M351.4216101385659,261.69422231213855 L339.03391130292437,256.16326894447474 M339.03391130292437,256.16326894447474 L324.82042112456276,254.56997040753367 M324.82042112456276,254.56997040753367 L309.28287725919415,256.974069540521 M309.28287725919415,256.974069540521 L296.3376302959615,251.1447768803998 M296.3376302959615,251.1447768803998 L281.32346792250337,247.2773168181137 M281.32346792250337,247.2773168181137 L265.1179347312451,245.59734834508077 M265.1179347312451,245.59734834508077 L248.66964162566566,246.2031746203038 M248.66964162566566,246.2031746203038 L235.74709929759422,248.368677085571 M235.74709929759422,248.368677085571 L224.71686495080633,251.61251001005624 M224.71686495080633,251.61251001005624 L214.88239152575852,255.94691584849224 M214.88239152575852,255.94691584849224 L206.56794826056398,261.2294320320906 M206.56794826056398,261.2294320320906 L200.04913906484336,267.2854683295859 M200.04913906484336,267.2854683295859 L195.54110984461477,273.91581649240345 M195.54110984461477,273.91581649240345 L193.19357860278274,280.90172565968476 M193.19357860278274,280.90172565968476 L193.08508122534374,288.01263382255433 M193.08508122534374,288.01263382255433 L195.22028887633863,295.0137601733296 M195.22028887633863,295.0137601733296 L199.53006507557635,301.67372706345907 M199.53006507557635,301.67372706345907 L205.87250020052622,307.77147445288807 M205.87250020052622,307.77147445288807 L214.03850770401237,313.1050505421146 M214.03850770401237,313.1050505421146 L223.7576389540124,317.4973490931418 M223.7576389540124,317.4973490931418 L234.70899710921861,320.80304974132514 M234.70899710921861,320.80304974132514 L246.53010802443646,322.91242147553885 M246.53010802443646,322.91242147553885 L258.8294821513821,323.7554240903185 M258.8294821513821,323.7554240903185 L271.20013756713297,323.30403635076135 M271.20013756713297,323.30403635076135 L283.2355746544918,321.5724161799153 M283.2355746544918,321.5724161799153 L294.5319150614448,318.61836507547935 M294.5319150614448,318.61836507547935 L304.7159916097075,314.5399375572292 M304.7159916097075,314.5399375572292 L313.45168083123485,309.4719759648455 M313.45168083123485,309.4719759648455 L320.448408711036,303.5835732161298 M320.448408711036,303.5835732161298 L325.47700977968304,297.0680843634475 M325.47700977968304,297.0680843634475 L328.36981553557047,290.14380919790574 M328.36981553557047,290.14380919790574 L329.033047932121,283.03858095876546 M329.033047932121,283.03858095876546 L327.4453365982949,275.98706002085606 M327.4453365982949,275.98706002085606 L323.6619391728291,269.22571874435477 M323.6619391728291,269.22571874435477 L317.8088981665335,262.97508270080505 M317.8088981665335,262.97508270080505 L313.8062476584094,259.85218656003514 M313.8062476584094,259.85218656003514 L309.28287725919415,256.974069540521 M309.28287725919415,256.974069540521 L309.13595987587956,203.04909637539743 M309.13595987587956,203.04909637539743 L296.2442067597774,197.24449644227005 M296.2442067597774,197.24449644227005 L281.29655714946864,193.3824771175412 M281.29655714946864,193.3824771175412 L265.16015124051063,191.68646837315057 M265.16015124051063,191.68646837315057 L248.7705308278812,192.25454244938967 M248.7705308278812,192.25454244938967 L233.07784622734178,195.0538698600804 M233.07784622734178,195.0538698600804 L218.99207189097092,199.9225198719379 M218.99207189097092,199.9225198719379 L207.33072451436385,206.5787783590362 M207.33072451436385,206.5787783590362 L198.77150797867301,214.63718488343056 M198.77150797867301,214.63718488343056 L193.81293153003753,223.63061889906794 M193.81293153003753,223.63061889906794 L192.74518433647532,233.0372261039064 M192.74518433647532,233.0372261039064 L195.63267152186768,242.31048051034662 M195.63267152186768,242.31048051034662 L202.30984602237612,250.9109707970594 M202.30984602237612,250.9109707970594 L212.39023602013646,258.3378226662464 M212.39023602013646,258.3378226662464 L225.28861645395233,264.1580861545499 M225.28861645395233,264.1580861545499 L240.254835629566,268.03218073747496 M240.254835629566,268.03218073747496 L256.4174992857097,269.7339101090754 M256.4174992857097,269.7339101090754 L272.8350336338982,269.1638819158729 M272.8350336338982,269.1638819158729 L288.55093972639565,266.3553998580418 M288.55093972639565,266.3553998580418 L302.64986058481566,261.47245576273025 M302.64986058481566,261.47245576273025 L314.31131393409504,254.80006492090112 M314.31131393409504,254.80006492090112 L322.8575716224533,246.72738349847657 M322.8575716224533,246.72738349847657 L327.7930469965746,237.72477568126357 M327.7930469965746,237.72477568126357 L328.83290582384797,228.31623352123285 M328.83290582384797,228.31623352123285 L325.9190857423207,219.0486997250612 M325.9190857423207,219.0486997250612 L319.2231830153619,210.4602846838378 M319.2231830153619,210.4602846838378 L309.13595987587956,203.04909637539743 M331.0907524648584,190.5022625738913 L314.43955025159624,182.8133381824187 M314.43955025159624,182.8133381824187 L295.2876841372895,177.3620621439209 M295.2876841372895,177.3620621439209 L274.52840371202274,174.4016250431429 M274.52840371202274,174.4016250431429 L253.12914553146885,174.0694582358365 M253.12914553146885,174.0694582358365 L232.08688466769868,176.38101721817804 M232.08688466769868,176.38101721817804 L212.38206139415828,181.22896166319785 M212.38206139415828,181.22896166319785 L194.93355388196184,188.3881664768537 M194.93355388196184,188.3881664768537 L180.55598947212155,197.52584981149747 M180.55598947212155,197.52584981149747 L169.92205778385025,208.2168637343551 M169.92205778385025,208.2168637343551 L163.53083197147754,219.9630985273544 M163.53083197147754,219.9630985273544 L161.6842771767532,232.2165467167695 M161.6842771767532,232.2165467167695 L164.47228295534637,244.40455344213518 M164.47228295534637,244.40455344213518 L171.76810802144655,255.9566886832974 M171.76810802144655,255.9566886832974 L183.23342384926087,266.3314119363027 M183.23342384926087,266.3314119363027 L198.33368272609061,275.0416857657024 M198.33368272609061,275.0416857657024 L216.3628472079563,281.67811477063674 M216.3628472079563,281.67811477063674 L236.47634933376406,285.9284529040667 M236.47634933376406,285.9284529040667 L257.73089956692695,287.5925861178349 M257.73089956692695,287.5925861178349 L279.1290833505382,286.59212957532765 M279.1290833505382,286.59212957532765 L299.66673018959534,282.97422135581564 M299.66673018959534,282.97422135581564 L318.3804130182983,276.9092020838426 M318.3804130182983,276.9092020838426 L334.39322732985966,268.68250920101985 M334.39322732985966,268.68250920101985 L346.9559905128914,258.6809033432329 M346.9559905128914,258.6809033432329 L355.48245847375074,247.37405472844281 M355.48245847375074,247.37405472844281 L359.57649358357014,235.292202186281 M359.57649358357014,235.292202186281 L359.0500957406453,223.0010698079162 M359.0500957406453,223.0010698079162 L353.931547980544,211.0752363083017 M353.931547980544,211.0752363083017 L344.46345276134343,200.0713562184278 M344.46345276134343,200.0713562184278 L331.0907524648584,190.5022625738913 M348.59931166070703,160.17654847935418 L329.88300106217025,151.35988022140174 M329.88300106217025,151.35988022140174 L308.51925916335904,144.81073543029547 M308.51925916335904,144.81073543029547 L285.3266943831648,140.77873972568443 M285.3266943831648,140.77873972568443 L261.19298553498476,139.41746195232565 M261.19298553498476,139.41746195232565 L237.041370345451,140.77873494807147 M237.041370345451,140.77873494807147 L213.79578255767746,144.8107366249114 M213.79578255767746,144.8107366249114 L192.34592854756568,151.35988380628717 M192.34592854756568,151.35988380628717 L173.51371970222038,160.17654847935438 M173.51371970222038,160.17654847935438 L158.02197866391424,170.9243187038837 M158.02197866391424,170.9243187038837 L146.46687974311772,183.19260076313094 M146.46687974311772,183.19260076313094 L139.2948449886989,196.5119807109175 M139.2948449886989,196.5119807109175 L136.7850671985771,210.37199320567777 M136.7850671985771,210.37199320567777 L139.03820231215292,224.24048236995696 M139.03820231215292,224.24048236995696 L145.97190208880446,237.58400947387656 M145.97190208880446,237.58400947387656 L157.32333218154113,249.88843690842828 M157.32333218154113,249.88843690842828 L172.6586957237331,260.6788595629145 M172.6586957237331,260.6788595629145 L191.38951794793087,269.53816714655056 M191.38951794793087,269.53816714655056 L212.79512958410908,276.12345019241434 M212.79512958410908,276.12345019241434 L236.05059537694848,280.1796087263888 M236.05059537694848,280.1796087263888 L260.25861299537496,281.5493679946394 M260.25861299537496,281.5493679946394 L284.48463181651795,280.1796039192983 M284.48463181651795,280.1796039192983 L307.79343822061156,276.1234586033195 M307.79343822061156,276.1234586033195 L329.2856539030041,269.5381635429228 M329.2856539030041,269.5381635429228 L348.13293494516904,260.67885956291417 M348.13293494516904,260.67885956291417 L363.61016423729063,249.88845011029136 M363.61016423729063,249.88845011029136 L375.12337668619523,237.58402026954235 M375.12337668619523,237.58402026954235 L382.23251045958307,224.24047757470612 M382.23251045958307,224.24047757470612 L384.6679963010924,210.37199320567785 M384.6679963010924,210.37199320567785 L382.3404410720114,196.51198550030486 M382.3404410720114,196.51198550030486 L375.3435227873604,183.19260195977398 M375.3435227873604,183.19260195977398 L363.9497476173958,170.92433185982847 M363.9497476173958,170.92433185982847 L348.59931166070703,160.17654847935418 M348.59931166070703,160.17654847935418 L348.16954230072884,164.9444327550506 M348.16954230072884,164.9444327550506 L346.8811316228938,169.97576048771717 M346.8811316228938,169.97576048771717 L344.79869399565246,175.01844259099155 M344.79869399565246,175.01844259099155 L342.0266129400473,179.8198278219989 M342.0266129400473,179.8198278219989 L338.70374637030864,184.13939750254946 M338.70374637030864,184.13939750254946 L334.9965545841223,187.76071676769376 M334.9965545841223,187.76071676769376 L331.0907524648584,190.5022625738913 M348.59931166070703,160.17654847935418 L348.5760418954672,150.02655313173085 M348.5760418954672,150.02655313173085 L363.9281728571534,160.77311746270217 M363.9281728571534,160.77311746270217 L375.3232047322888,173.03999674510487 M375.3232047322888,173.03999674510487 L382.3208926024664,186.35787114006163 M382.3208926024664,186.35787114006163 L384.6486999239209,200.21630936612075 M384.6486999239209,200.21630936612075 L382.2129380555827,214.083224236535 M382.2129380555827,214.083224236535 L375.1030098084828,227.42525772861265 M375.1030098084828,227.42525772861265 L363.5885141695132,239.72829666590016 M363.5885141695132,239.72829666590016 L348.1095617531308,250.51748697077258 M348.1095617531308,250.51748697077258 L329.2601836883274,259.3757904135805 M329.2601836883274,259.3757904135805 L307.7655778594874,265.96034200374555 M307.7655778594874,265.96034200374555 L284.4541805734709,270.0160294923927 M284.4541805734709,270.0160294923927 L260.2254705056755,271.3856389771933 M260.2254705056755,271.3856389771933 L236.0147656397972,270.01603429894055 M236.0147656397972,270.01603429894055 L212.75672081071835,265.96033359378976 M212.75672081071835,265.96033359378976 L191.34873825810377,259.3757940168013 M191.34873825810377,259.3757940168013 L172.61584487166436,250.5174869707725 M172.61584487166436,250.5174869707725 L157.27878969813926,239.72828346552905 M157.27878969813926,239.72828346552905 L145.92611231917292,227.4252469341675 M145.92611231917292,227.4252469341675 L138.99165699249875,214.08322903124318 M138.99165699249875,214.08322903124318 L136.7382862966133,200.21630936612075 M136.7382862966133,200.21630936612075 L139.24835658469124,186.35786635121667 M139.24835658469124,186.35786635121667 L146.42119974269067,173.03999554859743 M146.42119974269067,173.03999554859743 L157.97759111622818,160.7731043082493 M157.97759111622818,160.7731043082493 L173.47105846594806,150.02655313173065 M173.47105846594806,150.02655313173065 L192.30536096035334,141.21088889613304 M192.30536096035334,141.21088889613304 L213.75759569616025,134.662485100448 M213.75759569616025,134.662485100448 L237.0057603303129,130.6309411955396 M237.0057603303129,130.6309411955396 L261.1600502581996,129.26982276941504 M261.1600502581996,129.26982276941504 L285.29642988078996,130.63094597261022 M285.29642988078996,130.63094597261022 L308.4915597673326,134.66248390596758 M308.4915597673326,134.66248390596758 L329.8576633217776,141.21088531165447 M329.8576633217776,141.21088531165447 L348.5760418954672,150.02655313173085 M348.5760418954672,150.02655313173085 L348.1254681228961,145.76004185797686 M348.1254681228961,145.76004185797686 L346.8169482362963,142.209787584693 M346.8169482362963,142.209787584693 L344.7159041944643,139.5538925451816 M344.7159041944643,139.5538925451816 L341.92754110816674,137.92571802145085 M341.92754110816674,137.92571802145085 L338.59153309757653,137.40712768092334 M338.59153309757653,137.40712768092334 L334.8751105798708,138.02432933942703 M334.8751105798708,138.02432933942703 L330.9646520385171,139.74659372092913 M330.9646520385171,139.74659372092913 L344.34473595076236,149.31026400855575 M344.34473595076236,149.31026400855575 L353.81805019195633,160.30791033201706 M353.81805019195633,160.30791033201706 L358.93940586938186,172.22699111485682 M358.93940586938186,172.22699111485682 L359.4660656099999,184.51116757243213 M359.4660656099999,184.51116757243213 L355.36973005305003,196.58618623034764 M355.36973005305003,196.58618623034764 L346.8385030616242,207.8866425599718 M346.8385030616242,207.8866425599718 L334.26874197111647,217.88259665135155 M334.26874197111647,217.88259665135155 L318.2470167883746,226.10464257873963 M318.2470167883746,226.10464257873963 L299.52292726275107,232.16623700431856 M299.52292726275107,232.16623700431856 L278.9738666146258,235.78210266094362 M278.9738666146258,235.78210266094362 L257.56379904062135,236.7819944320461 M257.56379904062135,236.7819944320461 L236.29745474589933,235.11880065774062 M236.29745474589933,235.11880065774062 L216.17280372497885,230.87086224003167 M216.17280372497885,230.87086224003167 L198.13365993486022,224.2381810065612 M198.13365993486022,224.2381810065612 L183.0250596585378,215.53282773871365 M183.0250596585378,215.53282773871365 L171.55343033325252,205.1639677390031 M171.55343033325252,205.1639677390031 L164.25361313644862,193.61836425874455 M164.25361313644862,193.61836425874455 L161.46412012079946,181.43725236228676 M161.46412012079946,181.43725236228676 L163.31175812417743,169.19073968257757 M163.31175812417743,169.19073968257757 L169.70658295892622,157.45115675934028 M169.70658295892622,157.45115675934028 L180.34645778984077,146.76620006832525 M180.34645778984077,146.76620006832525 L194.73202951377831,137.63369610585863 M194.73202951377831,137.63369610585863 L212.19023367281588,130.47855065978467 M212.19023367281588,130.47855065978467 L231.90599088321875,125.63335577733108 M231.90599088321875,125.63335577733108 L252.95991451585667,123.32310802218035 M252.95991451585667,123.32310802218035 L274.3710227838044,123.65508640049694 M274.3710227838044,123.65508640049694 L295.1417905650173,126.61384424678675 M295.1417905650173,126.61384424678675 L314.3042477611003,132.06202870778543 M314.3042477611003,132.06202870778543 L330.9646520385171,139.74659372092913" stroke="black"  stroke-width="4"  fill="red"/></svg>